<svg width="54" height="54" viewBox="0 0 54 54" fill="none" xmlns="http://www.w3.org/2000/svg">
<path d="M43.3334 43C40.3734 43 38 45.3733 38 48.3333C38 49.7478 38.5619 51.1044 39.5621 52.1045C40.5623 53.1047 41.9189 53.6666 43.3334 53.6666C44.7478 53.6666 46.1044 53.1047 47.1046 52.1045C48.1048 51.1044 48.6667 49.7478 48.6667 48.3333C48.6667 46.9188 48.1048 45.5623 47.1046 44.5621C46.1044 43.5619 44.7478 43 43.3334 43ZM0.666687 0.333313V5.66665H6.00002L15.6 25.9066L11.9734 32.44C11.5734 33.1866 11.3334 34.0666 11.3334 35C11.3334 36.4145 11.8953 37.771 12.8954 38.7712C13.8956 39.7714 15.2522 40.3333 16.6667 40.3333H48.6667V35H17.7867C17.6099 35 17.4403 34.9297 17.3153 34.8047C17.1903 34.6797 17.12 34.5101 17.12 34.3333C17.12 34.2 17.1467 34.0933 17.2 34.0133L19.6 29.6666H39.4667C41.4667 29.6666 43.2267 28.5466 44.1333 26.92L53.68 9.66665C53.8667 9.23998 54 8.78665 54 8.33331C54 7.62607 53.7191 6.94779 53.219 6.4477C52.7189 5.9476 52.0406 5.66665 51.3334 5.66665H11.8934L9.38669 0.333313M16.6667 43C13.7067 43 11.3334 45.3733 11.3334 48.3333C11.3334 49.7478 11.8953 51.1044 12.8954 52.1045C13.8956 53.1047 15.2522 53.6666 16.6667 53.6666C18.0812 53.6666 19.4377 53.1047 20.4379 52.1045C21.4381 51.1044 22 49.7478 22 48.3333C22 46.9188 21.4381 45.5623 20.4379 44.5621C19.4377 43.5619 18.0812 43 16.6667 43Z" fill="black"/>
</svg>
