<svg width="54" height="62" viewBox="0 0 54 62" fill="none" xmlns="http://www.w3.org/2000/svg">
<path fill-rule="evenodd" clip-rule="evenodd" d="M0.75 5.125C0.75 3.96468 1.21094 2.85188 2.03141 2.03141C2.85188 1.21094 3.96468 0.75 5.125 0.75H48.875C50.0353 0.75 51.1481 1.21094 51.9686 2.03141C52.7891 2.85188 53.25 3.96468 53.25 5.125V11.2092C53.2497 12.7561 52.6349 14.2396 51.5408 15.3333L35.75 31.1242V52.7775C35.7501 53.3244 35.6103 53.8623 35.344 54.3401C35.0777 54.8178 34.6937 55.2195 34.2285 55.5071C33.7633 55.7946 33.2322 55.9585 32.6858 55.9831C32.1394 56.0076 31.5958 55.8921 31.1067 55.6475L20.2654 50.2283C19.6598 49.9256 19.1505 49.4601 18.7946 48.8842C18.4386 48.3082 18.25 47.6446 18.25 46.9675V31.1242L2.45917 15.3333C1.36513 14.2396 0.75033 12.7561 0.75 11.2092V5.125ZM6.58333 6.58333V11.2092L22.8 27.4258C23.2067 27.832 23.5294 28.3144 23.7496 28.8454C23.9698 29.3764 24.0832 29.9456 24.0833 30.5204V45.6142L29.9167 48.5308V30.5204C29.9167 29.3596 30.3775 28.2454 31.2 27.4288L47.4167 11.2063V6.58333H6.58333Z" fill="black"/>
</svg>
