<svg width="42" height="42" viewBox="0 0 42 42" fill="none" xmlns="http://www.w3.org/2000/svg">
<path fill-rule="evenodd" clip-rule="evenodd" d="M21 31.15C28.0595 31.15 34.4505 27.2125 37.884 21C34.4505 14.7875 28.0595 10.85 21 10.85C13.9405 10.85 7.5495 14.7875 4.116 21C7.5495 27.2125 13.9405 31.15 21 31.15ZM21 8.75C29.414 8.75 36.701 13.734 40.25 21C36.701 28.266 29.414 33.25 21 33.25C12.586 33.25 5.299 28.266 1.75 21C5.299 13.734 12.586 8.75 21 8.75ZM21 25.9C22.2996 25.9 23.5459 25.3838 24.4648 24.4648C25.3838 23.5459 25.9 22.2996 25.9 21C25.9 19.7004 25.3838 18.4541 24.4648 17.5352C23.5459 16.6162 22.2996 16.1 21 16.1C19.7004 16.1 18.4541 16.6162 17.5352 17.5352C16.6162 18.4541 16.1 19.7004 16.1 21C16.1 22.2996 16.6162 23.5459 17.5352 24.4648C18.4541 25.3838 19.7004 25.9 21 25.9ZM21 28C19.1435 28 17.363 27.2625 16.0503 25.9498C14.7375 24.637 14 22.8565 14 21C14 19.1435 14.7375 17.363 16.0503 16.0503C17.363 14.7375 19.1435 14 21 14C22.8565 14 24.637 14.7375 25.9497 16.0503C27.2625 17.363 28 19.1435 28 21C28 22.8565 27.2625 24.637 25.9497 25.9498C24.637 27.2625 22.8565 28 21 28Z" fill="black"/>
</svg>
