<svg width="48" height="48" viewBox="0 0 48 48" fill="none" xmlns="http://www.w3.org/2000/svg">
<path d="M17.7292 0.125C22.3981 0.125 26.8758 1.97972 30.1772 5.28114C33.4786 8.58256 35.3333 13.0603 35.3333 17.7292C35.3333 22.0896 33.7354 26.0979 31.1083 29.1854L31.8396 29.9167H33.9792L47.5208 43.4583L43.4583 47.5208L29.9167 33.9792V31.8396L29.1854 31.1083C25.9906 33.8342 21.9288 35.3321 17.7292 35.3333C13.0603 35.3333 8.58256 33.4786 5.28114 30.1772C1.97972 26.8758 0.125 22.3981 0.125 17.7292C0.125 13.0603 1.97972 8.58256 5.28114 5.28114C8.58256 1.97972 13.0603 0.125 17.7292 0.125ZM17.7292 5.54167C10.9583 5.54167 5.54167 10.9583 5.54167 17.7292C5.54167 24.5 10.9583 29.9167 17.7292 29.9167C24.5 29.9167 29.9167 24.5 29.9167 17.7292C29.9167 10.9583 24.5 5.54167 17.7292 5.54167Z" fill="black"/>
</svg>
